HIERARCHY
ROOT Hips
{
	OFFSET -0.001795 -0.223333 0.028219
	CHANNELS 6 Xposition Yposition Zposition Zrotation Yrotation Xrotation 
	JOINT LeftUpLeg
	{
		OFFSET 0.069520 -0.091406 -0.006815
		CHANNELS 3 Zrotation Yrotation Xrotation
		JOINT LeftLeg
		{
			OFFSET 0.034277 -0.375199 -0.004496
			CHANNELS 3 Zrotation Yrotation Xrotation
			JOINT LeftFoot
			{
				OFFSET -0.013596 -0.397961 -0.043693
				CHANNELS 3 Zrotation Yrotation Xrotation
				JOINT LeftToe
				{
					OFFSET 0.026358 -0.055791 0.119288
					CHANNELS 3 Zrotation Yrotation Xrotation
					End Site
					{
						OFFSET 0.000000 0.000000 0.000000
					}
				}
			}
		}
	}
	JOINT RightUpLeg
	{
		OFFSET -0.067670 -0.090522 -0.004320
		CHANNELS 3 Zrotation Yrotation Xrotation
		JOINT RightLeg
		{
			OFFSET -0.038290 -0.382569 -0.008850
			CHANNELS 3 Zrotation Yrotation Xrotation
			JOINT RightFoot
			{
				OFFSET 0.015774 -0.398415 -0.042312
				CHANNELS 3 Zrotation Yrotation Xrotation
				JOINT RightToe
				{
					OFFSET -0.025372 -0.048144 0.123348
					CHANNELS 3 Zrotation Yrotation Xrotation
					End Site
					{
						OFFSET 0.000000 0.000000 0.000000
					}
				}
			}
		}
	}
	JOINT Spine
	{
		OFFSET -0.002533 0.108963 -0.026696
		CHANNELS 3 Zrotation Yrotation Xrotation
		JOINT Spine1
		{
			OFFSET 0.005487 0.135180 0.001092
			CHANNELS 3 Zrotation Yrotation Xrotation
			JOINT Spine2
			{
				OFFSET 0.001457 0.052922 0.025425
				CHANNELS 3 Zrotation Yrotation Xrotation
				JOINT Neck
				{
					OFFSET -0.002778 0.213870 -0.042857
					CHANNELS 3 Zrotation Yrotation Xrotation
					JOINT Head
					{
						OFFSET 0.005152 0.064970 0.051349
						CHANNELS 3 Zrotation Yrotation Xrotation
						End Site
						{
							OFFSET 0.000000 0.000000 0.000000
						}
					}
				}
				JOINT LeftShoulder
				{
					OFFSET 0.078845 0.121749 -0.034090
					CHANNELS 3 Zrotation Yrotation Xrotation
					JOINT LeftArm
					{
						OFFSET 0.090977 0.030469 -0.008868
						CHANNELS 3 Zrotation Yrotation Xrotation
						JOINT LeftForeArm
						{
							OFFSET 0.259612 -0.012772 -0.027456
							CHANNELS 3 Zrotation Yrotation Xrotation
							JOINT LeftHand
							{
								OFFSET 0.249234 0.008986 -0.001171
								CHANNELS 3 Zrotation Yrotation Xrotation
								End Site
								{
									OFFSET 0.000000 0.000000 0.000000
								}
							}
						}
					}
				}
				JOINT RightShoulder
				{
					OFFSET -0.081759 0.118833 -0.038615
					CHANNELS 3 Zrotation Yrotation Xrotation
					JOINT RightArm
					{
						OFFSET -0.096012 0.032551 -0.009143
						CHANNELS 3 Zrotation Yrotation Xrotation
						JOINT RightForeArm
						{
							OFFSET -0.253742 -0.013329 -0.021401
							CHANNELS 3 Zrotation Yrotation Xrotation
							JOINT RightHand
							{
								OFFSET -0.255298 0.007772 -0.005559
								CHANNELS 3 Zrotation Yrotation Xrotation
								End Site
								{
									OFFSET 0.000000 0.000000 0.000000
								}
							}
						}
					}
				}
			}
		}
	}
}
MOTION
Frames: 16
Frame Time: 0.050000
0.000000 0.835474 0.000000 -2.874406 3.616156 -8.585641 22.366651 0.278758 -4.618124 -8.698279 1.166934 7.954008 5.479431 7.857917 -10.100011 0.000000 0.000000 0.000000 -16.172079 -0.439477 -5.945963 2.250991 -0.068243 12.802421 -1.845942 -1.596232 -7.246356 0.000000 0.000000 0.000000 7.266527 -0.495429 5.996693 -4.719748 1.951883 -21.901373 -2.887059 0.993377 20.797627 8.416554 -4.254080 -16.404573 0.000000 0.000000 0.000000 -8.735445 -17.643987 6.459073 -61.060625 -14.978748 -1.608533 -9.998590 -20.699760 2.630805 0.000000 0.000000 0.000000 17.030811 5.408117 2.686788 63.430462 14.852952 -0.058114 8.255348 24.086639 2.829731 0.000000 0.000000 0.000000 
-0.000934 0.830829 0.003030 -3.190467 2.085168 -7.890927 23.639621 0.405024 -4.485279 -9.843282 1.406769 7.877677 6.146894 9.314591 -11.613036 0.000000 0.000000 0.000000 -16.563436 -0.437877 -7.914958 3.905888 -0.409176 14.462419 -1.856301 -0.568183 -8.772219 0.000000 0.000000 0.000000 8.680099 -0.486958 5.423881 -6.824062 2.370758 -24.404968 -1.395462 0.858352 23.465501 7.786185 -4.255245 -15.448953 0.000000 0.000000 0.000000 -11.465325 -18.637985 7.385572 -58.909912 -16.758846 -0.924944 -10.718137 -16.877935 2.242066 0.000000 0.000000 0.000000 16.331015 6.378915 3.008998 64.398446 14.668225 -0.465738 8.928978 22.784718 2.763135 0.000000 0.000000 0.000000 
-0.001175 0.827571 0.005049 -2.955705 3.741320 -9.026650 23.292663 0.125130 -3.122225 -9.885396 1.295381 6.553181 5.923005 7.845274 -12.777648 0.000000 0.000000 0.000000 -17.201594 -0.489445 -5.014328 4.153580 -0.517653 12.766499 -2.323895 -1.606669 -10.148898 0.000000 0.000000 0.000000 8.215342 -0.574843 6.440959 -5.841128 2.198977 -23.747419 -2.870446 -0.541302 23.108382 7.214175 -3.218509 -19.659021 0.000000 0.000000 0.000000 -10.859941 -18.833429 7.424409 -59.465532 -17.668794 -0.391909 -10.455399 -18.123403 2.384091 0.000000 0.000000 0.000000 15.945939 5.601288 2.546612 63.878005 15.191739 -0.194889 9.373011 21.510731 2.651217 0.000000 0.000000 0.000000 
-0.001064 0.827866 0.006853 -2.894602 3.726713 -9.202770 23.377567 0.000914 -1.880860 -10.193988 1.259165 4.816958 5.869654 7.815956 -12.483274 0.000000 0.000000 0.000000 -17.785371 -0.455821 -3.543225 5.102820 -0.709252 10.579580 -2.237317 -1.455441 -9.845890 0.000000 0.000000 0.000000 9.124090 -0.654364 6.831507 -7.030015 2.479513 -24.111383 -2.712630 -1.082010 22.747084 6.010179 -2.516106 -19.431090 0.000000 0.000000 0.000000 -9.243948 -19.665216 7.658450 -61.075935 -19.106360 0.546423 -9.768694 -18.667535 2.358449 0.000000 0.000000 0.000000 14.273909 6.705896 2.926473 65.172594 15.503711 0.162209 8.628490 20.459604 2.343006 0.000000 0.000000 0.000000 
-0.000775 0.828710 0.008301 -2.603625 3.907477 -9.426582 22.583294 -0.069298 -1.244903 -9.399947 1.121221 4.211502 5.805989 7.645412 -12.369572 0.000000 0.000000 0.000000 -18.255918 -0.474470 -3.140280 5.302192 -0.755676 10.600827 -2.210493 -1.439885 -9.737985 0.000000 0.000000 0.000000 9.147946 -0.690721 7.142893 -6.779627 2.436518 -23.819324 -3.288817 -0.343219 22.660401 6.295761 -2.526625 -19.628552 0.000000 0.000000 0.000000 -8.919213 -20.485279 7.825796 -60.218331 -20.629760 1.308665 -11.470966 -21.159177 2.995596 0.000000 0.000000 0.000000 14.716346 6.681638 3.086565 63.353480 15.659883 0.175192 8.837693 21.617413 2.551641 0.000000 0.000000 0.000000 
-0.000651 0.829168 0.009442 -2.673018 3.919695 -9.196306 22.559744 -0.161290 -0.530836 -9.269642 1.031658 2.513174 5.760837 7.718440 -11.936846 0.000000 0.000000 0.000000 -18.145108 -0.459722 -3.147413 5.264841 -0.744264 10.309842 -2.214662 -1.531016 -9.621083 0.000000 0.000000 0.000000 9.614266 -0.745700 7.324628 -6.904677 2.441099 -24.288712 -3.365979 -0.341167 22.432742 6.458751 -2.572511 -19.984867 0.000000 0.000000 0.000000 -8.914759 -21.397645 8.199007 -60.742781 -21.356247 1.790965 -10.668353 -21.782827 2.932274 0.000000 0.000000 0.000000 15.354564 7.602729 3.567860 61.582086 16.710140 0.643100 8.233131 20.425414 2.250165 0.000000 0.000000 0.000000 
-0.000930 0.829960 0.010319 -2.393346 3.089000 -8.940429 21.873983 -0.165671 0.270745 -8.411930 0.908357 1.323738 5.908411 8.486461 -11.493492 0.000000 0.000000 0.000000 -17.715969 -0.424780 -4.155491 4.109580 -0.479327 11.245041 -2.108476 -0.943961 -9.779327 0.000000 0.000000 0.000000 9.744355 -0.729112 7.171620 -6.801990 2.404990 -24.208913 -3.577684 0.299054 22.435535 6.925879 -2.823315 -20.170494 0.000000 0.000000 0.000000 -9.001344 -21.638745 8.301247 -60.199642 -22.346139 2.302082 -10.066121 -23.438163 3.039492 0.000000 0.000000 0.000000 15.935259 8.529864 4.080313 59.805523 18.020786 1.198073 7.339511 21.441096 2.213493 0.000000 0.000000 0.000000 
-0.001920 0.831066 0.011156 -2.523616 2.101372 -8.594591 21.850658 -0.130287 0.611725 -7.813977 0.847339 0.845426 6.076313 9.326796 -11.005059 0.000000 0.000000 0.000000 -16.862226 -0.335845 -4.839177 3.172079 -0.252026 11.261911 -1.948514 -0.326178 -9.655707 0.000000 0.000000 0.000000 10.021036 -0.773349 7.384835 -6.614300 2.331863 -24.281024 -3.594491 1.046259 22.029875 6.925848 -2.717735 -20.517770 0.000000 0.000000 0.000000 -8.562699 -22.322269 8.509662 -60.245011 -23.387801 2.915341 -8.780982 -23.221363 2.734349 0.000000 0.000000 0.000000 16.098770 9.197515 4.436290 58.955137 19.661644 2.039415 5.668307 21.624577 1.928865 0.000000 0.000000 0.000000 
-0.003497 0.831825 0.012262 -2.666636 1.472204 -8.357110 21.595488 -0.125366 1.030777 -6.731471 0.723320 0.196838 6.175173 9.860153 -10.581484 0.000000 0.000000 0.000000 -15.906742 -0.275647 -5.694241 2.067206 0.015380 12.124245 -1.914596 0.009577 -9.860352 0.000000 0.000000 0.000000 10.130695 -0.766717 7.288602 -6.500590 2.294004 -24.233885 -3.542009 1.007305 21.942527 6.916178 -2.694243 -21.000414 0.000000 0.000000 0.000000 -8.005907 -22.514959 8.575314 -60.234270 -24.328995 3.479110 -7.337159 -22.997361 2.417137 0.000000 0.000000 0.000000 16.254351 9.912547 4.711563 58.761916 21.814969 3.161804 4.284875 21.348019 1.644873 0.000000 0.000000 0.000000 
-0.005314 0.832311 0.014016 -2.789286 0.784565 -8.368537 21.870664 -0.098612 1.312177 -6.621224 0.729142 0.458637 6.287199 10.333798 -10.416945 0.000000 0.000000 0.000000 -15.090271 -0.205091 -6.044826 1.193908 0.237054 12.600783 -1.872614 0.477128 -10.175491 0.000000 0.000000 0.000000 10.111913 -0.789946 7.520619 -6.354292 2.243334 -24.237967 -3.251474 1.352054 21.666137 6.710065 -2.428030 -21.877302 0.000000 0.000000 0.000000 -7.434946 -22.651580 8.557848 -60.072098 -25.056585 3.898164 -6.060010 -22.381062 2.091198 0.000000 0.000000 0.000000 15.707899 10.565449 4.958730 58.539026 23.137908 3.898977 3.395955 20.976808 1.444605 0.000000 0.000000 0.000000 
-0.006686 0.832935 0.016332 -2.885132 0.494605 -8.390305 22.003993 -0.084991 1.413620 -6.426065 0.720353 0.855895 6.322524 10.495794 -10.354094 0.000000 0.000000 0.000000 -14.879372 -0.173136 -5.831795 1.246153 0.224834 12.378542 -1.852576 0.685994 -10.300563 0.000000 0.000000 0.000000 9.975081 -0.811548 7.769793 -6.355510 2.236838 -24.336074 -2.998945 1.377360 21.449926 6.863865 -2.475619 -22.320618 0.000000 0.000000 0.000000 -7.129411 -22.570095 8.499954 -59.807635 -25.554914 4.171602 -5.324565 -21.499764 1.862212 0.000000 0.000000 0.000000 15.103054 10.610890 4.892947 59.089789 24.433739 4.713525 2.989675 20.125588 1.303799 0.000000 0.000000 0.000000 
-0.007467 0.833282 0.018778 -2.902752 0.339526 -8.352741 21.803221 -0.075334 1.492725 -5.870638 0.662930 1.100927 6.367495 10.618418 -10.440275 0.000000 0.000000 0.000000 -14.832856 -0.155469 -5.574796 1.327314 0.200686 12.055774 -1.859849 0.797045 -10.450305 0.000000 0.000000 0.000000 10.131207 -0.873383 8.190936 -6.573856 2.272467 -24.735477 -2.682373 1.530484 21.422422 6.721954 -2.310963 -22.792086 0.000000 0.000000 0.000000 -6.906355 -22.627935 8.483923 -59.290062 -26.024731 4.353372 -4.980363 -20.672911 1.716204 0.000000 0.000000 0.000000 14.667447 10.937489 5.024127 58.707265 25.234934 5.097739 3.162158 19.969405 1.310144 0.000000 0.000000 0.000000 
-0.007699 0.833230 0.020762 -2.737334 0.474895 -8.233457 21.600034 -0.054714 1.162656 -5.812057 0.663203 1.681807 6.382583 10.560370 -10.706115 0.000000 0.000000 0.000000 -14.954791 -0.161192 -5.494058 1.210429 0.222726 12.019120 -1.943799 0.666868 -10.715543 0.000000 0.000000 0.000000 10.006213 -0.966521 8.914186 -6.620910 2.267419 -25.210951 -2.532468 1.741109 21.651011 6.381103 -1.955086 -23.629810 0.000000 0.000000 0.000000 -6.850218 -22.500056 8.395191 -58.813121 -26.483691 4.482633 -4.685320 -20.434469 1.638839 0.000000 0.000000 0.000000 14.016166 11.046752 5.073060 58.207973 25.685326 5.255713 3.661255 20.410265 1.426048 0.000000 0.000000 0.000000 
-0.007747 0.833453 0.022286 -2.567475 0.555641 -7.882999 21.175946 -0.035333 0.804483 -5.395644 0.612822 1.832753 6.410785 10.628270 -10.744550 0.000000 0.000000 0.000000 -15.013262 -0.161586 -5.725498 0.974406 0.272092 12.001072 -1.998602 0.525860 -10.814338 0.000000 0.000000 0.000000 9.929723 -1.037960 9.402725 -6.570422 2.252583 -25.222653 -2.650442 1.817293 21.256685 6.550824 -1.915217 -24.448669 0.000000 0.000000 0.000000 -6.967424 -22.187243 8.273537 -58.255116 -27.062646 4.744221 -4.825487 -20.032585 1.622399 0.000000 0.000000 0.000000 13.992558 11.225783 5.164175 57.353848 26.332972 5.501593 3.480428 20.835622 1.426353 0.000000 0.000000 0.000000 
-0.007877 0.834498 0.023911 -2.347038 0.777028 -7.689995 20.698414 -0.036529 0.613303 -5.005749 0.562276 1.885437 6.342440 10.504047 -10.474430 0.000000 0.000000 0.000000 -15.220970 -0.182855 -5.927927 0.920992 0.290758 12.344874 -2.024844 0.326535 -10.718326 0.000000 0.000000 0.000000 9.650131 -1.099739 9.958363 -6.534619 2.220665 -25.756559 -2.594325 1.868891 21.658299 6.579494 -1.883876 -24.736537 0.000000 0.000000 0.000000 -6.614004 -22.061608 8.161557 -58.020028 -27.634879 4.958123 -4.464690 -21.035445 1.644121 0.000000 0.000000 0.000000 13.597297 11.155880 5.133053 57.238478 26.886921 5.742283 3.113827 21.584826 1.436049 0.000000 0.000000 0.000000 
-0.008394 0.835361 0.026127 -2.141750 1.295823 -7.518057 20.439680 -0.025883 0.015981 -4.957302 0.555479 2.594899 6.213324 10.103815 -10.402840 0.000000 0.000000 0.000000 -15.166886 -0.207045 -6.111440 0.423086 0.414107 12.994900 -2.162541 -0.170975 -10.858024 0.000000 0.000000 0.000000 9.266849 -1.128937 10.325345 -6.458372 2.206745 -25.861221 -2.798137 1.686072 21.597598 6.946133 -2.121795 -24.493677 0.000000 0.000000 0.000000 -6.651199 -21.413498 7.897964 -57.645098 -27.864905 5.005308 -4.364397 -22.415274 1.744730 0.000000 0.000000 0.000000 14.071430 10.662938 4.955618 56.590039 27.060150 5.707354 3.107663 22.317766 1.499069 0.000000 0.000000 0.000000 
